<svg width="171" height="35" viewBox="0 0 171 35" fill="none" xmlns="http://www.w3.org/2000/svg">
<path fill-rule="evenodd" clip-rule="evenodd" d="M94.093 11.9444C91.5383 11.6642 89.3286 12.457 87.4594 14.7583V0.644012L80.6936 1.48302V34.1519H87.4594V32.2128C88.3718 32.8799 89.2594 33.6831 90.2978 34.0636C94.2399 35.5107 99.438 34.331 101.257 28.9308C102.424 25.4657 102.394 21.9138 101.515 18.4105C100.539 14.518 98.0095 12.3703 94.0922 11.9428L94.093 11.9444ZM95.1034 26.0922C94.8065 28.2462 93.1324 29.375 91.145 29.2166C90.6476 29.1768 90.1991 29.0733 89.7957 28.9109C88.1946 27.9692 87.7104 26.3923 87.5697 25.402C87.5682 25.402 87.5666 25.402 87.5666 25.4036C87.4578 23.8713 87.3389 20.6672 88.0687 19.1532C88.6882 17.9926 89.7693 17.3606 91.2033 17.312C93.2412 17.2435 94.7824 18.2784 95.0855 20.3958C95.3544 22.2617 95.3669 24.2279 95.1057 26.0922H95.1034ZM118.07 12.3472C115.72 11.7024 113.345 11.7104 111 12.3512C107.487 13.3096 105.132 15.5862 104.374 19.2073C103.96 21.1831 103.877 23.283 103.987 25.3097C104.237 29.9425 107.035 33.2445 111.379 34.2697C111.439 34.2857 111.503 34.296 111.565 34.3095H111.564L111.595 34.3175C111.763 34.3509 111.929 34.3828 112.097 34.409L112.266 34.425H112.271C112.481 34.4648 112.734 34.4942 113 34.5157C113.85 34.6081 114.932 34.6749 115.835 34.5651C115.841 34.5651 115.845 34.5635 115.849 34.5627C115.896 34.5627 115.942 34.5627 115.988 34.5587C120.472 34.3199 123.875 31.4239 124.868 26.9805C125.412 24.5447 125.412 22.0961 124.886 19.6571C124.061 15.8306 121.794 13.3685 118.07 12.348L118.07 12.3472ZM118.358 25.7411C118.335 25.8844 118.311 26.0277 118.28 26.1694C117.83 28.2136 116.381 29.3201 114.449 29.2277C112.37 29.1306 110.943 27.8864 110.744 25.7594C110.599 24.2056 110.588 22.6191 110.712 21.0645C110.911 18.6103 112.409 17.2674 114.657 17.3136C116.504 17.3502 117.82 18.4225 118.29 20.2414C118.716 22.0722 118.398 25.3248 118.357 25.7419L118.358 25.7411ZM16.5054 12.2326H11.6757V8.94338C12.0294 5.8341 17.0441 6.42475 17.0441 6.42475L17.0456 6.21221L17.0433 6.18833V1.08023H17.0386C16.8676 1.03725 7.06444 -1.34526 5.11748 6.2958C5.11748 6.29739 5.11748 6.29978 5.11515 6.30137L5.10194 6.35152C4.79571 7.30675 4.8167 11.6817 4.82058 12.2318H0.635986V18.0826H5.08173V33.9951H11.5537V18.0818H16.5047L17.0619 12.231H16.5054V12.2326ZM31.942 15.0314C31.8627 14.9414 31.7842 14.8547 31.7166 14.7822C31.7057 14.7703 31.6971 14.7607 31.6855 14.7504C31.5922 14.6493 31.5261 14.5832 31.5261 14.5832C30.0028 12.9952 29.4276 12.6011 28.233 12.2397C23.6419 10.8546 19.1721 13.3175 17.756 18.0483C16.887 20.9554 16.8746 23.9469 17.3845 26.8922C18.4858 33.2667 23.1158 35.4017 28.0504 34.3493C29.5644 34.0262 30.6898 33.0598 31.7344 31.7161C31.7344 31.7161 31.8277 31.5983 31.9427 31.369V34.175H38.2569V12.2572H31.9427V15.0314H31.942ZM31.3862 26.0603C31.1748 28.087 29.5737 29.3041 27.6812 29.2285C25.742 29.1505 24.4588 28.087 24.0399 26.1813C23.5378 23.4701 24.1254 20.2485 24.1751 19.9882C24.6819 18.1677 25.9744 17.2674 27.8708 17.3136C29.7331 17.3558 31.1686 18.4837 31.3785 20.4603C31.5751 22.3087 31.5805 24.2112 31.3862 26.0603V26.0603ZM57.5415 32.6029C57.2485 31.5043 56.9151 30.4218 56.5933 29.3766L56.2878 28.2128C56.2878 28.2128 48.3733 32.1038 47.1399 24.7103C47.0248 23.49 47.0598 22.2306 47.2238 21.0263C47.5316 18.7536 48.8855 17.5365 51.04 17.3279C51.7667 17.2563 52.5245 17.2929 53.2442 17.4179C54.2251 17.5874 55.1826 17.8899 56.256 18.1614C56.6291 16.9928 57.0099 15.837 57.3651 14.6716C57.421 14.4885 57.4677 14.3317 57.505 14.1908L57.6838 13.4903C57.6387 13.3979 57.5306 13.3016 57.3861 13.2077C57.2042 13.0525 56.8941 12.9227 56.4099 12.7412C56.2156 12.6696 56.0213 12.6059 55.827 12.5422C55.6536 12.4865 55.5394 12.4531 55.5394 12.4531H55.5409C53.4618 11.8441 51.3284 11.7971 49.1599 12.0312C44.5898 12.5247 41.4871 15.2869 40.6259 19.8481C40.1751 22.2466 40.1961 24.6752 40.7145 27.0816C41.4918 30.6852 43.6237 33.0136 47.0909 34.0548C49.3526 34.7338 51.6719 34.7681 53.9787 34.3995C54.9487 34.2443 56.3399 33.7292 57.3387 33.3623L57.7195 33.2254L57.5392 32.6021L57.5407 32.6037L57.5415 32.6029ZM78.3751 24.0281C78.344 22.5116 78.365 20.9873 78.1552 19.4963C77.5777 15.4079 75.1473 12.8208 71.2168 12.145C69.7168 11.8879 68.1313 11.9221 66.6063 12.071C62.4349 12.4769 59.2693 15.1388 58.6195 19.1437C58.2247 21.5731 58.1742 24.1507 58.4928 26.5913C58.9747 30.2625 60.7188 32.6013 63.7376 33.7237H63.7391C63.7523 33.7237 63.7656 33.7261 63.778 33.7276V33.73C65.1552 34.1519 71.9 35.9589 77.8443 32.899L77.6057 32.0027C77.6033 32.0043 77.5994 32.0043 77.5979 32.0043C77.322 30.8086 76.9917 29.6257 76.6792 28.4404L76.6458 28.3242C76.6458 28.3242 76.5214 28.3696 76.3038 28.4412C76.2984 28.4412 76.2921 28.4412 76.2883 28.4428C76.0279 28.5121 75.7714 28.5941 75.5165 28.6816C75.4698 28.6976 75.4232 28.7119 75.375 28.7262C74.475 28.9857 73.1887 29.3057 71.8309 29.4848C70.6899 29.6026 69.538 29.6074 68.3753 29.5055C66.4866 29.1871 65.0426 28.1507 65.1109 25.7021H77.294C77.3818 25.7021 77.4712 25.7021 77.5583 25.7005V25.7021C77.5583 25.7021 78.3534 25.6918 78.3868 25.6838V25.4418L78.3743 24.0289L78.3751 24.0281ZM72.2894 21.0406H64.9788C65.0177 19.552 65.1995 18.1669 66.4921 17.3231C67.8647 16.4316 69.381 16.3974 70.7925 17.1982C72.2195 18.0053 72.3314 19.4637 72.2902 21.0406H72.2894ZM170.636 12.4857H163.459L157.226 22.4663V0.66471L150.46 1.50372V34.1726H157.226V24.1745L163.459 34.1885H170.636L163.872 23.3188L170.636 12.4857ZM141.146 12.344C138.796 11.6992 136.421 11.7072 134.074 12.3472C130.563 13.3056 128.209 15.5814 127.45 19.201C127.036 21.1783 126.953 23.2782 127.063 25.3049C127.312 29.9394 130.111 33.2413 134.453 34.2658C134.515 34.2817 134.579 34.2928 134.641 34.3072H134.639L134.671 34.3135C134.837 34.3478 135.005 34.3796 135.173 34.4051C135.229 34.4106 135.286 34.4162 135.342 34.4194C135.344 34.421 135.345 34.421 135.347 34.421C135.559 34.4608 135.81 34.491 136.074 34.5125C136.926 34.6049 138.01 34.6717 138.911 34.5619L138.925 34.5587C138.972 34.5587 139.018 34.5587 139.062 34.5555C143.546 34.3167 146.951 31.4192 147.944 26.9773C148.488 24.5415 148.488 22.0921 147.963 19.6539C147.136 15.8266 144.872 13.3653 141.147 12.3448L141.146 12.344ZM141.432 25.7371C141.409 25.882 141.386 26.0237 141.355 26.167C140.904 28.2104 139.456 29.3153 137.523 29.2237C135.445 29.125 134.019 27.8816 133.819 25.7554C133.674 24.2032 133.661 22.6159 133.788 21.0613C133.987 18.6063 135.484 17.2642 137.734 17.3096C139.577 17.3462 140.895 18.4185 141.363 20.2374C141.788 22.0667 141.474 25.3216 141.432 25.7379L141.432 25.7371Z" fill="white"/>
</svg>
